<?xml version="1.0" standalone="no"?>
<!DOCTYPE svg PUBLIC "-//W3C//DTD SVG 20010904//EN"
 "http://www.w3.org/TR/2001/REC-SVG-20010904/DTD/svg10.dtd">
<svg version="1.0" xmlns="http://www.w3.org/2000/svg"
 width="500.000000pt" height="500.000000pt" viewBox="0 0 500.000000 500.000000"
 preserveAspectRatio="xMidYMid meet">

<g transform="translate(0.000000,500.000000) scale(0.100000,-0.100000)"
fill="#000000" stroke="none">
<path d="M2375 4764 c-455 -34 -857 -180 -1190 -433 -233 -177 -455 -439 -588
-696 -104 -200 -176 -415 -207 -620 -6 -44 -16 -102 -20 -130 -13 -77 -9 -369
5 -475 26 -189 79 -397 132 -520 70 -164 236 -462 272 -490 4 -3 22 -25 41
-50 98 -128 263 -289 390 -383 36 -27 72 -53 80 -60 17 -13 72 -49 135 -88
129 -81 354 -174 527 -218 219 -56 293 -65 548 -66 231 0 254 2 445 41 335 68
669 230 924 449 148 127 221 204 365 385 37 47 131 199 174 281 80 155 174
418 196 549 37 224 49 551 25 699 -66 414 -217 761 -459 1055 -71 87 -232 244
-320 313 -136 106 -368 243 -495 291 -16 6 -55 21 -85 32 -128 50 -297 91
-463 114 -108 16 -347 26 -432 20z m300 -59 c66 -4 138 -10 160 -15 22 -5 69
-14 105 -21 425 -78 852 -322 1139 -650 100 -114 105 -120 169 -216 163 -242
268 -508 320 -808 22 -127 24 -520 4 -635 -51 -287 -124 -496 -253 -720 -106
-185 -190 -293 -358 -460 -320 -318 -712 -514 -1166 -582 -130 -19 -481 -16
-615 5 -174 28 -369 84 -495 142 -31 14 -57 25 -59 25 -11 0 -205 113 -281
163 -296 198 -551 486 -717 812 -87 170 -158 398 -195 620 -21 126 -23 465 -4
575 46 265 94 423 185 612 322 667 985 1108 1741 1157 66 4 138 6 160 5 22 -1
94 -6 160 -9z"/>
<path d="M2448 4499 c-53 -111 -59 -153 -28 -192 l20 -26 -20 -6 c-11 -3 -31
-21 -45 -39 -50 -65 -21 -172 50 -190 14 -4 25 -10 25 -14 -1 -24 -52 -100
-84 -126 -34 -28 -45 -31 -104 -31 -80 0 -117 22 -159 92 l-26 45 21 17 c46
36 36 119 -18 141 -66 27 -124 -16 -118 -87 2 -30 9 -42 36 -58 32 -20 33 -21
28 -78 -9 -89 -49 -147 -114 -164 -46 -11 -132 34 -171 89 -12 18 -10 23 23
50 42 34 47 71 16 110 -27 35 -53 39 -95 18 -34 -17 -35 -17 -35 1 0 30 -72
95 -113 103 -32 6 -87 0 -87 -10 0 -2 25 -34 55 -71 59 -73 138 -222 211 -398
25 -60 48 -118 51 -127 3 -10 13 -18 22 -19 31 -1 267 -1 851 0 l585 1 12 28
c7 15 24 56 39 92 60 150 128 292 165 347 18 26 52 71 75 99 l43 52 -28 5
c-54 11 -102 -4 -143 -45 -21 -21 -38 -47 -38 -58 0 -19 0 -19 -34 1 -32 19
-37 19 -65 4 -61 -31 -67 -83 -15 -132 l36 -34 -25 -33 c-34 -44 -110 -80
-153 -72 -70 14 -108 66 -118 161 -6 60 -6 60 26 80 27 17 34 27 36 61 4 52
-20 83 -70 91 -32 5 -41 1 -69 -26 -27 -28 -31 -37 -25 -69 3 -21 15 -44 27
-53 25 -19 23 -28 -19 -85 -51 -69 -130 -92 -209 -59 -41 17 -75 53 -103 110
l-20 40 32 15 c73 35 93 120 44 184 -14 19 -35 38 -46 41 l-20 6 20 26 c11 14
20 40 20 56 0 28 -88 236 -100 236 -3 0 -26 -45 -52 -100z"/>
<path d="M1775 3424 c-30 -33 -31 -53 -4 -88 l20 -26 714 0 714 0 15 22 c23
32 20 71 -7 96 l-23 22 -703 0 -702 0 -24 -26z"/>
<path d="M880 3171 c0 -12 9 -20 29 -24 63 -13 61 6 61 -486 0 -414 -1 -449
-17 -464 -10 -8 -29 -17 -43 -19 -17 -2 -26 -10 -28 -27 l-4 -23 354 5 c283 4
364 8 408 21 164 48 283 152 337 296 62 163 55 327 -20 480 -35 70 -130 165
-201 200 -109 53 -171 60 -542 60 -320 0 -334 -1 -334 -19z m679 -110 c54 -28
115 -89 142 -144 43 -83 53 -136 53 -277 1 -133 -2 -151 -41 -239 -21 -47 -89
-119 -135 -142 -56 -28 -177 -43 -273 -33 l-80 9 -3 415 c-1 228 0 421 3 429
4 10 34 12 148 9 124 -3 148 -7 186 -27z"/>
<path d="M2100 3175 c0 -9 8 -18 18 -21 39 -13 60 -27 70 -49 7 -14 10 -175
11 -437 0 -371 -2 -419 -17 -449 -12 -23 -27 -36 -49 -41 -23 -6 -33 -14 -33
-28 0 -19 8 -20 225 -20 215 0 225 1 225 19 0 13 -9 21 -29 26 -16 3 -39 17
-52 31 -23 25 -24 31 -27 215 l-3 189 126 0 c112 0 130 -2 156 -21 21 -14 31
-32 35 -60 6 -33 10 -39 27 -37 19 3 20 10 19 163 -1 153 -2 160 -22 163 -16
3 -20 -2 -20 -28 0 -57 -33 -77 -141 -85 -52 -4 -112 -5 -134 -3 l-40 3 -3
194 -2 194 140 -5 c137 -4 140 -5 177 -34 21 -17 43 -48 52 -72 12 -33 20 -42
38 -42 23 0 23 1 23 125 l0 125 -385 0 c-339 0 -385 -2 -385 -15z"/>
<path d="M2960 3178 c0 -7 18 -21 39 -31 26 -12 40 -26 43 -42 5 -23 2 -92
-22 -475 -27 -433 -28 -435 -78 -446 -48 -10 -52 -13 -52 -34 0 -19 6 -20 155
-20 l155 0 0 24 c0 18 -7 25 -29 29 -61 12 -65 25 -57 192 3 82 9 237 13 343
6 182 12 221 29 170 4 -13 22 -56 42 -98 19 -41 51 -113 72 -160 21 -47 52
-115 69 -153 17 -37 31 -69 31 -71 0 -2 15 -37 34 -78 19 -40 41 -91 50 -112
9 -23 20 -36 25 -30 4 5 32 68 61 139 29 72 60 148 71 171 10 22 27 65 39 94
12 29 29 72 39 94 11 23 38 88 62 146 l44 105 6 -100 c15 -237 32 -587 30
-612 -2 -20 -32 -43 -57 -43 -19 0 -24 -5 -24 -25 l0 -25 200 0 200 0 0 25 c0
18 -5 25 -18 25 -10 0 -28 10 -39 23 -27 29 -38 129 -74 699 -14 209 -10 232
41 250 17 5 30 16 30 24 0 12 -27 14 -161 12 l-161 -3 -24 -60 c-13 -33 -29
-70 -34 -82 -6 -13 -14 -33 -19 -45 -5 -13 -16 -39 -24 -58 -9 -19 -43 -104
-76 -189 -34 -85 -63 -157 -66 -159 -3 -3 -12 12 -20 32 -20 48 -89 198 -182
396 -27 58 -56 120 -64 138 l-14 32 -142 0 c-108 0 -143 -3 -143 -12z"/>
<path d="M1303 1974 c-23 -5 -33 -24 -13 -24 6 0 10 -50 10 -130 0 -80 -4
-130 -10 -130 -5 0 -10 -7 -10 -16 0 -25 184 -15 231 12 107 62 105 214 -2
266 -36 18 -163 31 -206 22z m161 -45 c45 -21 67 -98 47 -169 -9 -33 -66 -70
-107 -70 l-34 0 0 125 0 125 35 0 c19 0 45 -5 59 -11z"/>
<path d="M1743 1973 c-40 -2 -73 -8 -73 -13 0 -6 5 -10 10 -10 6 0 10 -50 10
-130 0 -80 -4 -130 -10 -130 -5 0 -10 -7 -10 -15 0 -12 20 -15 120 -15 l120 0
0 35 c0 40 -18 46 -38 14 -11 -16 -21 -20 -60 -17 l-47 3 0 55 c0 52 1 55 26
58 15 2 33 -4 42 -12 26 -26 37 -18 37 24 0 29 -4 40 -15 40 -8 0 -15 -4 -15
-10 0 -5 -18 -10 -41 -10 l-40 0 3 48 3 47 47 3 c39 3 47 0 53 -17 10 -32 35
-14 35 25 0 38 20 35 -157 27z"/>
<path d="M2820 1958 c-57 -29 -83 -73 -83 -142 0 -101 57 -156 159 -156 86 0
148 45 165 119 32 144 -107 247 -241 179z m109 -19 c75 -26 93 -178 27 -231
-32 -26 -79 -23 -109 8 -31 31 -42 78 -33 142 7 50 27 79 60 85 11 2 21 5 22
6 1 0 15 -4 33 -10z"/>
<path d="M3529 1968 c-9 -7 -40 -73 -69 -145 -32 -82 -58 -133 -66 -133 -8 0
-14 -7 -14 -15 0 -11 12 -15 49 -15 51 0 73 12 46 27 -11 6 -12 16 -7 38 8 29
11 30 63 30 49 0 55 -2 68 -29 12 -25 12 -30 -3 -38 -29 -16 -6 -28 54 -28 58
0 91 17 52 27 -19 5 -46 62 -115 248 -16 43 -33 53 -58 33z m37 -152 c6 -25 4
-26 -35 -26 l-41 0 20 50 c11 28 20 54 21 58 1 10 27 -50 35 -82z"/>
<path d="M1990 1930 c0 -45 15 -52 32 -15 9 19 19 25 45 25 l33 0 0 -124 c0
-115 -1 -124 -20 -129 -11 -3 -20 -10 -20 -16 0 -7 26 -11 69 -11 69 0 100 13
61 25 -17 5 -20 15 -21 63 0 31 -3 68 -5 82 -3 14 -2 44 1 68 6 39 9 42 36 42
22 0 32 -6 39 -25 14 -38 30 -30 30 15 l0 40 -140 0 -140 0 0 -40z"/>
<path d="M2368 1954 c21 -16 22 -23 22 -139 0 -116 -1 -123 -21 -128 -41 -11
-7 -27 57 -27 65 0 80 11 44 30 -15 8 -20 21 -20 56 0 41 2 45 22 42 13 -2 34
-24 57 -63 34 -57 39 -60 79 -63 41 -3 59 12 27 24 -8 3 -28 31 -45 61 l-32
56 28 22 c23 18 29 31 29 62 0 68 -19 78 -154 81 -109 2 -115 1 -93 -14z m164
-31 c40 -36 4 -107 -50 -101 -25 3 -27 6 -30 61 l-3 57 32 0 c18 0 41 -7 51
-17z"/>
<path d="M3180 1961 c0 -5 9 -11 20 -14 18 -5 20 -14 20 -115 0 -61 -3 -117
-6 -126 -9 -24 -44 -20 -44 4 0 15 -7 20 -25 20 -20 0 -25 -5 -25 -25 0 -29
25 -45 70 -45 77 0 100 42 100 180 0 80 3 102 15 106 35 14 10 24 -55 24 -38
0 -70 -4 -70 -9z"/>
<path d="M1288 1528 c16 -16 16 -160 0 -176 -9 -9 -2 -12 32 -11 25 0 39 3 33
6 -8 2 -13 22 -13 45 0 39 1 40 30 36 27 -4 30 -2 29 21 0 14 -3 20 -6 14 -2
-7 -16 -13 -29 -13 -21 0 -24 5 -24 35 0 31 3 35 26 35 15 0 33 -8 40 -17 12
-16 13 -15 14 10 0 27 0 27 -72 27 -56 0 -69 -3 -60 -12z"/>
<path d="M1513 1525 c-56 -24 -65 -113 -16 -167 19 -21 109 -24 134 -5 48 37
53 115 10 158 -33 33 -75 37 -128 14z m83 -13 c32 -21 43 -82 22 -127 -13 -30
-61 -35 -90 -8 -24 21 -25 99 -1 125 16 18 49 23 69 10z"/>
<path d="M1778 1534 c-27 -8 -50 -53 -51 -101 0 -63 34 -96 99 -95 67 1 99 34
99 102 0 64 -25 91 -86 95 -24 2 -52 1 -61 -1z m78 -22 c18 -12 34 -49 34 -79
0 -62 -59 -95 -102 -56 -24 21 -25 99 -1 125 16 18 49 23 69 10z"/>
<path d="M1980 1531 c0 -6 5 -11 10 -11 15 0 13 -153 -2 -168 -9 -9 3 -12 56
-12 61 0 70 3 97 29 37 38 40 97 7 136 -20 22 -34 27 -95 32 -52 4 -73 3 -73
-6z m127 -37 c21 -21 25 -32 20 -65 -7 -51 -22 -69 -58 -69 l-29 0 0 80 c0 74
2 80 20 80 12 0 33 -12 47 -26z"/>
<path d="M2320 1532 c0 -4 4 -12 8 -17 5 -6 6 -47 3 -93 -6 -80 -5 -82 16 -82
20 0 21 3 13 28 -5 15 -6 49 -2 75 l7 48 29 -75 c16 -42 34 -76 40 -76 6 0 25
35 41 78 l30 77 3 -63 c2 -38 -2 -69 -9 -78 -10 -12 -4 -14 32 -14 33 0 40 3
31 12 -16 16 -16 160 1 177 10 10 4 12 -27 9 -39 -3 -40 -4 -64 -70 -14 -37
-27 -66 -31 -64 -3 2 -17 34 -31 70 -23 63 -26 66 -57 66 -18 0 -33 -4 -33 -8z"/>
<path d="M2676 1468 c-16 -40 -37 -85 -47 -100 l-20 -28 38 0 c27 0 34 3 26
11 -6 6 -8 19 -6 30 7 26 68 27 82 1 7 -13 6 -23 -1 -30 -9 -9 -1 -12 31 -12
36 0 41 2 32 14 -7 8 -27 52 -45 97 -19 46 -40 85 -48 87 -10 2 -24 -22 -42
-70z m48 -10 c9 -35 8 -38 -14 -38 -20 0 -25 15 -14 44 9 23 21 20 28 -6z"/>
<path d="M2875 1524 c14 -31 18 -140 5 -163 -10 -19 -8 -21 22 -21 33 0 33 1
30 40 -5 52 11 52 40 0 18 -31 29 -40 50 -40 l28 0 -31 44 -31 44 21 21 c25
25 26 40 7 66 -10 14 -30 20 -81 23 -64 4 -68 3 -60 -14z m100 -44 c0 -30 -4
-35 -25 -38 -24 -3 -25 -1 -22 38 4 35 7 41 26 38 17 -2 21 -10 21 -38z"/>
<path d="M3100 1530 c0 -5 5 -10 10 -10 15 0 13 -153 -2 -168 -9 -9 -2 -12 32
-12 34 0 41 3 32 12 -14 14 -16 54 -4 62 5 3 22 -13 38 -34 21 -29 36 -40 57
-40 15 0 27 2 27 4 0 2 -12 17 -27 33 -16 17 -35 42 -43 57 -14 27 -13 29 23
62 20 19 37 36 37 39 0 3 -16 5 -35 5 -25 0 -33 -4 -29 -14 3 -8 -9 -29 -26
-48 l-31 -33 4 48 5 47 -34 0 c-19 0 -34 -4 -34 -10z"/>
<path d="M3359 1449 c2 -69 0 -94 -10 -100 -9 -5 16 -9 64 -9 l77 0 0 28 c-1
24 -2 25 -14 10 -8 -11 -26 -18 -45 -18 -29 0 -31 2 -31 36 0 36 0 37 35 31
32 -5 35 -4 35 19 0 13 -4 24 -10 24 -5 0 -10 -5 -10 -11 0 -6 -10 -9 -22 -7
-18 2 -23 10 -23 33 0 25 4 30 28 33 17 2 29 -2 33 -12 8 -21 24 -10 24 15 0
17 -7 19 -67 19 l-68 0 4 -91z"/>
<path d="M3547 1534 c-10 -10 -9 -44 2 -44 5 0 11 7 15 15 3 8 15 15 26 15 18
0 20 -6 20 -78 0 -47 -5 -83 -12 -90 -9 -9 -2 -12 32 -12 34 0 41 3 32 12 -7
7 -12 43 -12 90 0 72 2 78 20 78 11 0 23 -7 26 -15 9 -23 26 -18 22 8 -3 20
-9 22 -83 25 -45 1 -84 0 -88 -4z"/>
<path d="M1808 1090 l-3 -70 27 0 c33 0 80 17 90 33 14 22 8 74 -10 90 -11 10
-35 17 -59 17 l-41 0 -4 -70z m79 52 c19 -12 26 -65 11 -84 -7 -9 -22 -18 -33
-20 -18 -3 -20 3 -23 55 -3 49 -1 57 15 57 10 0 24 -4 30 -8z"/>
<path d="M2335 1150 c3 -5 10 -10 16 -10 5 0 9 5 9 10 0 6 -7 10 -16 10 -8 0
-12 -4 -9 -10z"/>
<path d="M2682 1123 c11 -22 18 -52 16 -70 -4 -29 -1 -33 19 -33 21 0 22 2 11
20 -11 18 -9 28 13 70 20 37 23 50 13 50 -8 0 -14 -6 -14 -13 0 -7 -7 -22 -15
-33 -13 -18 -14 -17 -21 14 -4 21 -12 32 -24 32 -17 0 -17 -2 2 -37z"/>
<path d="M2058 1128 c-3 -7 -20 -11 -46 -10 -37 2 -43 0 -51 -22 -19 -49 11
-86 55 -69 17 6 16 8 -6 13 -14 3 -26 14 -28 23 -3 13 4 17 27 17 21 0 31 5
31 15 0 8 5 15 10 15 6 0 10 -18 10 -39 0 -45 6 -52 35 -40 17 6 17 8 3 8 -13
1 -18 9 -18 31 0 17 7 33 18 39 16 10 16 10 0 11 -10 0 -18 5 -18 10 0 14 -18
12 -22 -2z m-38 -28 c0 -5 -9 -10 -20 -10 -11 0 -20 5 -20 10 0 6 9 10 20 10
11 0 20 -4 20 -10z"/>
<path d="M2135 1069 c0 -37 4 -49 15 -49 12 0 15 9 12 40 -4 35 -2 40 17 40
12 0 21 4 21 9 0 5 -15 9 -32 9 -33 0 -33 0 -33 -49z"/>
<path d="M2216 1095 c-9 -35 1 -63 25 -70 30 -10 58 4 65 32 10 37 -7 57 -48
61 -31 3 -36 0 -42 -23z m70 -10 c6 -24 -9 -55 -27 -55 -14 0 -30 40 -24 60 9
29 43 25 51 -5z"/>
<path d="M2335 1058 c0 -45 -4 -62 -12 -60 -7 1 -13 -2 -13 -8 0 -16 37 -11
44 6 12 30 7 124 -6 124 -9 0 -13 -19 -13 -62z"/>
<path d="M2390 1105 c0 -8 5 -15 10 -15 6 0 10 5 10 10 0 6 5 10 10 10 19 0
10 -29 -11 -35 -14 -5 -19 -14 -17 -28 2 -17 9 -22 33 -21 44 3 43 2 40 22
-15 72 -15 72 -45 72 -20 0 -30 -5 -30 -15z m41 -58 c-13 -13 -26 -3 -16 12 3
6 11 8 17 5 6 -4 6 -10 -1 -17z"/>
<path d="M2781 1102 c-13 -25 -2 -70 20 -77 45 -15 77 20 65 71 -5 20 -13 24
-41 24 -23 0 -38 -6 -44 -18z m67 -22 c3 -33 -12 -55 -32 -47 -11 4 -16 19
-16 42 0 32 3 36 23 33 15 -2 23 -11 25 -28z"/>
<path d="M2898 1075 c2 -25 7 -46 11 -46 27 -6 69 -5 81 2 10 6 11 8 3 9 -8 0
-13 15 -13 40 0 26 -5 40 -13 40 -9 0 -11 -12 -9 -41 4 -36 2 -40 -14 -37 -14
2 -20 13 -22 41 -2 20 -9 37 -15 37 -8 0 -11 -15 -9 -45z"/>
<path d="M3018 1069 c3 -32 8 -49 17 -49 10 0 12 11 8 40 -5 36 -3 40 16 40
11 0 21 4 21 9 0 5 -15 9 -32 9 l-33 0 3 -49z"/>
<path d="M2510 1082 c0 -5 25 -10 55 -11 33 -1 55 2 55 8 0 7 -23 11 -55 11
-30 0 -55 -4 -55 -8z"/>
<path d="M1990 906 c0 -35 -2 -71 -5 -78 -4 -9 2 -14 16 -15 15 -1 19 2 15 13
-3 9 -6 45 -6 80 0 36 -4 64 -10 64 -6 0 -10 -28 -10 -64z"/>
<path d="M2827 963 c-4 -3 -7 -17 -7 -30 0 -12 -6 -23 -12 -23 -10 0 -9 -3 1
-9 9 -6 12 -21 9 -45 -3 -31 5 -46 26 -46 1 0 0 19 -2 41 -3 28 0 44 9 50 10
6 11 9 2 9 -7 0 -13 12 -13 26 0 22 2 25 15 14 12 -10 15 -10 15 4 0 16 -30
22 -43 9z"/>
<path d="M3208 892 c-3 -75 -2 -78 20 -78 15 0 19 3 12 10 -16 16 -12 66 6 73
21 8 35 -15 32 -52 -2 -21 1 -30 12 -30 10 0 14 8 12 25 -7 62 -11 70 -42 70
-27 0 -30 3 -30 30 0 17 -4 30 -9 30 -5 0 -11 -35 -13 -78z"/>
<path d="M1680 890 c0 -33 1 -63 3 -67 1 -5 20 -7 42 -5 66 5 95 59 59 110
-12 17 -25 22 -60 22 l-44 0 0 -60z m78 38 c7 -7 12 -26 12 -43 0 -37 -16 -55
-47 -55 -21 0 -23 4 -23 55 0 51 2 55 23 55 13 0 28 -5 35 -12z"/>
<path d="M1930 940 c0 -5 5 -10 10 -10 6 0 10 5 10 10 0 6 -4 10 -10 10 -5 0
-10 -4 -10 -10z"/>
<path d="M2200 890 c0 -33 1 -63 3 -67 5 -16 82 -2 100 19 35 41 9 109 -41
107 -26 0 -26 -1 -4 -9 54 -22 46 -110 -10 -110 l-30 0 4 60 c2 43 -1 60 -9
60 -9 0 -13 -19 -13 -60z"/>
<path d="M2938 890 c3 -45 0 -60 -10 -60 -8 0 -7 -4 5 -11 25 -15 34 -4 29 32
-4 29 -2 31 17 26 13 -3 21 0 21 8 0 8 -8 11 -20 8 -16 -4 -20 0 -20 22 0 25
3 27 30 22 17 -4 30 -2 30 3 0 6 -19 10 -42 10 l-43 0 3 -60z"/>
<path d="M1937 910 c-3 -8 -7 -33 -9 -56 -2 -31 0 -40 13 -41 14 -1 16 7 12
45 -6 60 -9 71 -16 52z"/>
<path d="M3045 907 c-2 -7 -5 -30 -8 -52 -4 -34 -1 -41 13 -42 15 -1 17 4 13
38 -5 32 -3 39 11 39 23 0 20 17 -5 23 -11 3 -22 0 -24 -6z"/>
<path d="M1826 894 c-5 -14 -4 -15 9 -4 17 14 19 20 6 20 -5 0 -12 -7 -15 -16z"/>
<path d="M1867 891 c4 -15 -1 -20 -19 -23 -17 -2 -23 -9 -23 -28 0 -14 6 -25
13 -24 6 1 22 2 35 3 21 1 23 4 18 43 -3 23 -11 43 -18 45 -7 3 -9 -3 -6 -16z
m3 -40 c0 -12 -20 -25 -27 -18 -7 7 6 27 18 27 5 0 9 -4 9 -9z"/>
<path d="M2060 864 c24 -55 25 -74 5 -74 -8 0 -15 -4 -15 -10 0 -5 7 -10 15
-10 8 0 15 2 15 5 0 2 11 34 25 70 13 36 20 65 14 65 -5 0 -12 -13 -15 -30 -4
-16 -10 -30 -14 -30 -4 0 -10 14 -13 30 -4 17 -13 30 -21 30 -13 0 -12 -7 4
-46z"/>
<path d="M2352 898 c-27 -27 0 -88 40 -88 36 0 62 62 36 88 -19 19 -30 14 -17
-9 14 -28 -3 -71 -25 -63 -21 8 -29 39 -16 64 12 22 1 27 -18 8z"/>
<path d="M2460 890 c0 -12 10 -25 25 -32 14 -6 25 -15 25 -20 0 -13 -38 -9
-43 5 -3 6 -6 2 -6 -10 -1 -18 5 -23 22 -23 47 0 63 44 22 60 -30 11 -34 35
-5 27 11 -3 20 -1 20 4 0 5 -13 9 -30 9 -23 0 -30 -4 -30 -20z"/>
<path d="M2549 884 c-7 -20 -6 -32 6 -50 17 -26 23 -28 52 -17 16 6 15 8 -7
13 -14 3 -26 14 -28 23 -3 13 4 17 28 17 25 0 31 3 26 16 -3 9 -6 18 -6 20 0
2 -14 4 -30 4 -24 0 -33 -6 -41 -26z m54 9 c-7 -2 -19 -2 -25 0 -7 3 -2 5 12
5 14 0 19 -2 13 -5z"/>
<path d="M2694 886 c-9 -36 4 -65 32 -72 35 -9 56 12 52 55 -2 27 -8 36 -23
38 -11 2 -14 0 -7 -3 17 -8 16 -71 -2 -77 -30 -12 -50 45 -24 71 9 9 8 12 -5
12 -9 0 -19 -11 -23 -24z"/>
<path d="M3109 886 c-10 -20 -9 -30 5 -51 9 -14 25 -25 36 -25 28 0 34 18 8
22 -13 2 -24 11 -26 21 -3 13 3 17 28 17 45 0 38 34 -8 38 -26 3 -34 -1 -43
-22z m54 7 c-7 -2 -19 -2 -25 0 -7 3 -2 5 12 5 14 0 19 -2 13 -5z"/>
<path d="M3332 831 c2 -7 7 -12 11 -12 12 1 9 15 -3 20 -7 2 -11 -2 -8 -8z"/>
</g>
</svg>
